<svg xmlns="http://www.w3.org/2000/svg" width="256" height="256" viewBox="0 0 100 100"><rect width="100" height="100" rx="20" fill="#0f172b"></rect><path fill="#dc3545" d="M48.97 25.21L48.97 25.21Q48.97 26.20 47.62 29.03Q46.27 31.87 43.84 36.10Q41.41 40.33 38.03 45.73Q34.66 51.13 30.61 57.16L30.61 57.16L30.61 77.22Q30.16 77.41 29.21 77.63Q28.27 77.86 27.28 77.86L27.28 77.86Q23.32 77.86 23.32 74.53L23.32 74.53L23.32 57.16Q20.80 53.47 18.14 49.33Q15.49 45.19 12.88 40.96Q10.27 36.73 7.93 32.68Q5.59 28.63 3.79 25.03L3.79 25.03Q4.15 24.04 5.14 23.09Q6.13 22.15 7.75 22.15L7.75 22.15Q9.46 22.15 10.40 23.05Q11.35 23.95 12.34 25.75L12.34 25.75Q13.78 28.27 15.71 31.69Q17.65 35.11 19.67 38.62Q21.70 42.13 23.59 45.41Q25.48 48.70 26.83 50.86L26.83 50.86L27.19 50.86Q31.87 43.03 35.51 36.28Q39.16 29.53 42.76 22.78L42.76 22.78Q43.30 22.42 44.06 22.28Q44.83 22.15 45.55 22.15L45.55 22.15Q48.97 22.15 48.97 25.21ZM93.43 28.90L78.58 28.90L78.58 77.22Q78.13 77.41 77.18 77.63Q76.23 77.86 75.25 77.86L75.25 77.86Q71.28 77.86 71.28 74.53L71.28 74.53L71.28 28.90L54.46 28.90Q54.19 28.45 53.92 27.68Q53.65 26.92 53.65 25.93L53.65 25.93Q53.65 24.40 54.37 23.54Q55.09 22.69 56.44 22.69L56.44 22.69L95.41 22.69Q95.68 23.14 95.94 23.90Q96.22 24.67 96.22 25.57L96.22 25.57Q96.22 27.10 95.50 28.00Q94.78 28.90 93.43 28.90L93.43 28.90Z"></path></svg>